<svg height="100%" style="fill:#776e65;fill-rule:evenodd;clip-rule:evenodd;stroke-linejoin:round;stroke-miterlimit:2;" version="1.1" viewBox="0 0 512 512" width="100%" xml:space="preserve" xmlns="http://www.w3.org/2000/svg" xmlns:serif="http://www.serif.com/" xmlns:xlink="http://www.w3.org/1999/xlink"><path d="M449.446,0c34.525,0 62.554,28.03 62.554,62.554l0,386.892c0,34.524 -28.03,62.554 -62.554,62.554l-386.892,0c-34.524,0 -62.554,-28.03 -62.554,-62.554l0,-386.892c0,-34.524 28.029,-62.554 62.554,-62.554l386.892,0Zm-253.927,424.544c135.939,0 210.268,-112.643 210.268,-210.268c0,-3.218 0,-6.437 -0.153,-9.502c14.406,-10.421 26.973,-23.448 36.935,-38.314c-13.18,5.824 -27.433,9.809 -42.452,11.648c15.326,-9.196 26.973,-23.602 32.49,-40.92c-14.252,8.429 -30.038,14.56 -46.896,17.931c-13.487,-14.406 -32.644,-23.295 -53.946,-23.295c-40.767,0 -73.87,33.104 -73.87,73.87c0,5.824 0.613,11.494 1.992,16.858c-61.456,-3.065 -115.862,-32.49 -152.337,-77.241c-6.284,10.881 -9.962,23.601 -9.962,37.088c0,25.594 13.027,48.276 32.95,61.456c-12.107,-0.307 -23.448,-3.678 -33.41,-9.196l0,0.92c0,35.862 25.441,65.594 59.311,72.49c-6.13,1.686 -12.72,2.606 -19.464,2.606c-4.751,0 -9.348,-0.46 -13.946,-1.38c9.349,29.426 36.628,50.728 68.965,51.341c-25.287,19.771 -57.164,31.571 -91.8,31.571c-5.977,0 -11.801,-0.306 -17.625,-1.073c32.337,21.15 71.264,33.41 112.95,33.41Z"/></svg>
